HIERARCHY
ROOT hip
{
  OFFSET 0 0 0
  CHANNELS 6 Xposition Yposition Zposition Zrotation Yrotation Xrotation
  JOINT abdomen
  {
    OFFSET 0 20.6881 -0.73152
    CHANNELS 3 Zrotation Xrotation Yrotation
    JOINT chest
    {
      OFFSET 0 11.7043 -0.48768
      CHANNELS 3 Zrotation Xrotation Yrotation
      JOINT neck
      {
        OFFSET 0 22.1894 -2.19456
        CHANNELS 3 Zrotation Xrotation Yrotation
        JOINT head
        {
          OFFSET -0.24384 7.07133 1.2192
          CHANNELS 3 Zrotation Xrotation Yrotation
          JOINT leftEye
          {
            OFFSET 4.14528 8.04674 8.04672
            CHANNELS 3 Zrotation Xrotation Yrotation
            End Site
            {
              OFFSET 1 0 0
            }
          }
          JOINT rightEye
          {
            OFFSET -3.6576 8.04674 8.04672
            CHANNELS 3 Zrotation Xrotation Yrotation
            End Site
            {
              OFFSET 1 0 0
            }
          }
        }
      }
      JOINT rCollar
      {
        OFFSET -2.68224 19.2634 -4.8768
        CHANNELS 3 Zrotation Xrotation Yrotation
        JOINT rShldr
        {
          OFFSET -8.77824 -1.95073 1.46304
          CHANNELS 3 Zrotation Xrotation Yrotation
          JOINT rForeArm
          {
            OFFSET -28.1742 -1.7115 0.48768
            CHANNELS 3 Zrotation Xrotation Yrotation
            JOINT rHand
            {
              OFFSET -22.5879 0.773209 7.07136
              CHANNELS 3 Zrotation Xrotation Yrotation
              JOINT rThumb1
              {
                OFFSET -1.2192 -0.487915 3.41376
                CHANNELS 3 Zrotation Xrotation Yrotation
                JOINT rThumb2
                {
                  OFFSET -3.37035 -0.52449 3.41376
                  CHANNELS 3 Zrotation Xrotation Yrotation
                  End Site
                  {
                    OFFSET -1.78271 -1.18214 1.43049
                  }
                }
              }
              JOINT rIndex1
              {
                OFFSET -7.75947 0.938293 5.60832
                CHANNELS 3 Zrotation Xrotation Yrotation
                JOINT rIndex2
                {
                  OFFSET -2.54057 -0.884171 1.56538
                  CHANNELS 3 Zrotation Xrotation Yrotation
                  End Site
                  {
                    OFFSET -1.62519 -0.234802 1.16502
                  }
                }
              }
              JOINT rMid1
              {
                OFFSET -8.24714 1.18213 3.41376
                CHANNELS 3 Zrotation Xrotation Yrotation
                JOINT rMid2
                {
                  OFFSET -3.10165 -0.590103 1.0647
                  CHANNELS 3 Zrotation Xrotation Yrotation
                  End Site
                  {
                    OFFSET -2.48547 -0.328903 0.83742
                  }
                }
              }
              JOINT rRing1
              {
                OFFSET -8.82822 0.546677 1.51678
                CHANNELS 3 Zrotation Xrotation Yrotation
                JOINT rRing2
                {
                  OFFSET -2.60934 -0.819778 -0.0198488
                  CHANNELS 3 Zrotation Xrotation Yrotation
                  End Site
                  {
                    OFFSET -2.33842 -0.294052 0.168128
                  }
                }
              }
              JOINT rPinky1
              {
                OFFSET -8.27202 -0.0477905 -0.4584
                CHANNELS 3 Zrotation Xrotation Yrotation
                JOINT rPinky2
                {
                  OFFSET -1.82734 -0.647385 -0.700984
                  CHANNELS 3 Zrotation Xrotation Yrotation
                  End Site
                  {
                    OFFSET -1.69225 -0.51767 -0.607171
                  }
                }
              }
            }
          }
        }
      }
      JOINT lCollar
      {
        OFFSET 2.68224 19.2634 -4.8768
        CHANNELS 3 Zrotation Xrotation Yrotation
        JOINT lShldr
        {
          OFFSET 8.77824 -1.95073 1.46304
          CHANNELS 3 Zrotation Xrotation Yrotation
          JOINT lForeArm
          {
            OFFSET 28.1742 -1.7115 0.48768
            CHANNELS 3 Zrotation Xrotation Yrotation
            JOINT lHand
            {
              OFFSET 22.5879 0.773209 7.07136
              CHANNELS 3 Zrotation Xrotation Yrotation
              JOINT lThumb1
              {
                OFFSET 1.2192 -0.487915 3.41376
                CHANNELS 3 Zrotation Xrotation Yrotation
                JOINT lThumb2
                {
                  OFFSET 3.37035 -0.52449 3.41376
                  CHANNELS 3 Zrotation Xrotation Yrotation
                  End Site
                  {
                    OFFSET 1.78271 -1.18214 1.43049
                  }
                }
              }
              JOINT lIndex1
              {
                OFFSET 7.75947 0.938293 5.60832
                CHANNELS 3 Zrotation Xrotation Yrotation
                JOINT lIndex2
                {
                  OFFSET 2.54057 -0.884171 1.56538
                  CHANNELS 3 Zrotation Xrotation Yrotation
                  End Site
                  {
                    OFFSET 1.62519 -0.234802 1.16502
                  }
                }
              }
              JOINT lMid1
              {
                OFFSET 8.24714 1.18213 3.41376
                CHANNELS 3 Zrotation Xrotation Yrotation
                JOINT lMid2
                {
                  OFFSET 3.10165 -0.590103 1.0647
                  CHANNELS 3 Zrotation Xrotation Yrotation
                  End Site
                  {
                    OFFSET 2.48547 -0.328903 0.83742
                  }
                }
              }
              JOINT lRing1
              {
                OFFSET 8.82822 0.546677 1.51678
                CHANNELS 3 Zrotation Xrotation Yrotation
                JOINT lRing2
                {
                  OFFSET 2.60934 -0.819778 -0.0198488
                  CHANNELS 3 Zrotation Xrotation Yrotation
                  End Site
                  {
                    OFFSET 2.33842 -0.294052 0.168128
                  }
                }
              }
              JOINT lPinky1
              {
                OFFSET 8.27202 -0.0477905 -0.4584
                CHANNELS 3 Zrotation Xrotation Yrotation
                JOINT lPinky2
                {
                  OFFSET 1.82734 -0.647385 -0.700984
                  CHANNELS 3 Zrotation Xrotation Yrotation
                  End Site
                  {
                    OFFSET 1.69225 -0.51767 -0.607171
                  }
                }
              }
            }
          }
        }
      }
    }
  }
  JOINT rButtock
  {
    OFFSET -8.77824 4.35084 1.2192
    CHANNELS 3 Zrotation Xrotation Yrotation
    JOINT rThigh
    {
      OFFSET 0 -1.70687 -2.19456
      CHANNELS 3 Zrotation Xrotation Yrotation
      JOINT rShin
      {
        OFFSET 0 -36.8199 0.73152
        CHANNELS 3 Zrotation Xrotation Yrotation
        JOINT rFoot
        {
          OFFSET 0.73152 -45.1104 -5.12064
          CHANNELS 3 Zrotation Xrotation Yrotation
          End Site
          {
            OFFSET -1.1221 -3.69964 12.103
          }
        }
      }
    }
  }
  JOINT lButtock
  {
    OFFSET 8.77824 4.35084 1.2192
    CHANNELS 3 Zrotation Xrotation Yrotation
    JOINT lThigh
    {
      OFFSET 0 -1.70687 -2.19456
      CHANNELS 3 Zrotation Xrotation Yrotation
      JOINT lShin
      {
        OFFSET 0 -36.8199 0.73152
        CHANNELS 3 Zrotation Xrotation Yrotation
        JOINT lFoot
        {
          OFFSET -0.73152 -45.1104 -5.12064
          CHANNELS 3 Zrotation Xrotation Yrotation
          End Site
          {
            OFFSET 1.1221 -3.69964 12.103
          }
        }
      }
    }
  }
}
MOTION
Frames:	4
Frame Time:	0.03333
-0.004648691508919001 42.68186569213867 0.22683650255203247 -20.12941539287567 -22.123751789331436 1.358017846941948 0.8035274595022202 11.86791256070137 5.147476941347122 6.99380099773407 -7.956868261098862 -1.3767866045236588 -13.102636635303497 11.492495834827423 -4.005781933665276 4.495670646429062 -22.951281666755676 -5.7109614461660385 -4.76499292999506 -1.2700869049876928 5.16925647854805 0.7935171201825142 -0.9929373487830162 -6.987368389964104 6.213354617357254 -4.88686379045248 -4.4415755197405815 26.189308762550354 25.578717291355133 19.316699355840683 -22.475597262382507 -22.674686908721924 54.85370635986328 0.44939741492271423 -9.57639679312706 -1.3905613403767347 4.125777259469032 4.941228479146957 -0.8585824817419052 8.493019044399261 -0.7427137345075607 -1.1576276645064354 -2.8347931802272797 0.607678759843111 -1.4165054261684418 5.632361322641373 11.979213505983353 2.911735698580742 -1.2102345004677773 5.226438827812672 3.213421180844307 -3.681609146296978 4.154718965291977 -1.2373825628310442 2.9703406244516373 4.4381432980299 0.7853642106056213 7.290409728884697 1.6709806770086288 -0.023534707725048065 4.242031574249268 0.6007296591997147 -3.004145845770836 6.797197088599205 -1.6467097029089928 0.21516647189855576 -0.053332289680838585 1.6261173784732819 -4.50054656714201 -53.74319136142731 29.788484573364258 -11.358599960803986 19.536820203065872 -34.23505336046219 -66.49203658103943 -0.22315341979265213 -0.7903799414634705 -5.829289108514786 -1.5607734024524689 -1.9824833795428276 -7.3995233327150345 -6.950821280479431 2.1712549030780792 -4.077062644064426 2.042628228664398 -2.2009147703647614 2.9051512107253075 -9.303606078028679 8.399447500705719 -0.7227596081793308 -2.3628514632582664 -0.4351197648793459 -4.2989809066057205 -3.1266986578702927 -1.505112536251545 4.461661241948605 -0.5150858871638775 -6.494376361370087 -4.199587628245354 -13.429288119077682 -0.04537627100944519 1.261780522763729 3.353542797267437 0.7627491652965546 0.9138291981071234 -5.240744724869728 -0.481756255030632 3.73273104429245 2.933848835527897 2.4342354387044907 0.26494793593883514 -23.617577254772186 -30.759650766849518 -30.942842960357666 -19.781129211187363 42.25444257259369 15.765380859375 -8.118372783064842 -9.482607319951057 -4.254330508410931 -0.16679836437106133 -2.3311762511730194 2.9029739275574684 18.835284411907196 -29.570758938789368 17.172389924526215 20.891510099172592 57.483601570129395 -20.555153042078018 0.42932426556944847 -4.327103868126869 6.998911276459694
-0.017562270630151033 63.52254104614258 0.4638676345348358 -27.864503860473633 -9.458205252885818 4.832717701792717 4.346105977892876 20.381233245134354 0.48105552792549133 -1.545204520225525 -13.110091835260391 1.539563164114952 -17.66426146030426 9.844965040683746 -7.101523205637932 22.35396847128868 -33.914545476436615 -13.307927548885345 -15.273706465959549 -3.4984970837831497 1.5525497496128082 -5.5030543729662895 -2.1245506033301353 -17.659444212913513 4.862795323133469 -6.28067672252655 -13.130774348974228 34.74396228790283 34.060524702072144 29.038807153701782 -30.086950063705444 -37.94377863407135 70.01032769680023 5.507665425539017 -29.411226511001587 -8.028438314795494 9.134067669510841 -2.048453986644745 -4.2234056442976 19.90473747253418 5.360941216349602 -6.46657258272171 3.549996167421341 -1.7334498278796673 -15.741786807775497 -0.3329467959702015 14.57228198647499 2.1151652187108994 18.456387519836426 8.658355101943016 -5.717210993170738 4.826381988823414 11.202461868524551 -5.352140553295612 -4.105342850089073 8.522737249732018 -12.061043679714203 18.305861949920654 9.375711902976036 -10.467729717493057 -2.1728602051734924 4.544657841324806 -4.885093197226524 6.92921943962574 -5.314340852200985 9.522705674171448 -4.889450445771217 -6.5007613599300385 -7.381673231720924 -72.11569547653198 34.99675512313843 -3.3867106586694717 27.32872724533081 -33.63009989261627 -75.63590168952942 9.580967277288437 -16.921496093273163 11.155828982591629 -3.8633157312870026 -10.882218852639198 -2.5960234366357327 -6.3267892599105835 19.737175852060318 -2.979768253862858 -4.030568897724152 -12.557242959737778 0.013955198228359222 -26.950259506702423 6.288972795009613 12.781631201505661 0.37357572466135025 2.1362363174557686 2.1301990002393723 -8.151422962546349 -0.38151372224092484 14.667838364839554 -4.644389748573303 9.12002831697464 0.8726681023836136 -4.02838122099638 5.363719314336777 -16.293907463550568 7.831299304962158 -16.701626032590866 8.311120346188545 -6.421627476811409 -1.0046260803937912 17.97422021627426 -14.032437801361084 0.11485420167446136 1.865285262465477 -33.178230822086334 -46.58308804035187 -27.489155530929565 -37.859262228012085 67.71432995796204 38.263036608695984 -22.367946803569794 -1.1222662590444088 -11.172970980405807 9.75748747587204 -8.337127715349197 6.572230160236359 29.390436708927155 -32.1771365404129 25.921114683151245 34.70199108123779 73.03596675395966 -36.032291650772095 9.155655428767204 -1.2528309971094131 7.311710491776466
-0.07961409213021398 53.90418243408203 0.45241277664899826 -15.800434648990631 -5.034947544336319 -32.09708333015442 4.537575468420982 1.0216064751148224 4.146299511194229 5.382512211799622 -9.954682141542435 0.7975729554891586 -18.238978385925293 7.199282348155975 -1.0023515671491623 10.382502526044846 -23.90865057706833 -3.858300670981407 -7.1110899746418 1.472097560763359 4.466587454080582 1.394224651157856 -1.9850623235106468 -8.72229091823101 3.2030175626277924 -3.913930021226406 -13.030878156423569 42.58348524570465 38.20120632648468 24.050708413124084 -27.481908202171326 -40.13983190059662 75.31434774398804 3.939587026834488 -22.234092503786087 -6.056397780776024 7.134899273514748 2.1974359452724457 1.855212226510048 13.260846734046936 7.233984097838402 -4.658125005662441 2.203709799796343 -1.2038101069629192 0.38925424218177795 7.490649372339249 10.305198580026627 8.376900181174278 -8.528566360473633 4.013669975101948 3.304535821080208 -4.4616250321269035 2.8052647411823273 6.280020251870155 8.543016090989113 -7.594257071614265 4.375881850719452 7.165118381381035 8.146509155631065 -8.636904805898666 -1.7294427752494812 0.7309562712907791 1.4959356933832169 10.698231384158134 -1.0724272951483727 0.377957783639431 3.39855395257473 3.2660843431949615 -5.615197531878948 -79.35537457466125 28.849250078201294 -3.063332810997963 25.267106294631958 -48.42299222946167 -82.00590133666992 7.363601177930832 -1.7300543189048767 1.5276695787906647 -3.169519454240799 -8.088773265480995 -12.447610348463058 -7.999210953712463 8.894328474998474 -3.7376317754387856 1.3798704743385315 2.6495517790317535 5.390196405351162 -12.485387921333313 3.156522810459137 3.076407238841057 -10.650453865528107 -3.8890565559267998 1.3648896664381027 0.921047106385231 -3.484700806438923 6.024347394704819 1.459921170026064 -2.628849484026432 -6.079306527972221 -6.976579874753952 -6.757942289113998 -1.8816182389855385 9.33340609073639 5.84915354847908 -0.9784370753914118 -12.339062690734863 0.48653192818164825 0.4585263133049011 -0.3120103105902672 5.775613412261009 -4.565528109669685 -50.07751286029816 -32.74659365415573 -37.15724229812622 -40.549432039260864 68.07969510555267 39.11512613296509 -10.421633943915367 -21.73679620027542 -6.340032666921616 0.12165175750851631 -1.7972101271152496 -1.1865096911787987 56.32317066192627 -35.12789100408554 46.79470896720886 45.68890392780304 74.45627152919769 -57.40348935127258 -5.242327228188515 -12.445109188556671 1.9950679689645767
-0.13889739708974957 53.719913482666016 0.42226922512054443 -15.46062558889389 -2.6934861950576305 -32.47963070869446 3.3990421146154404 3.357381373643875 5.572802871465683 6.104702353477478 -12.55794569849968 0.029208585619926453 -17.674987614154816 8.437969386577606 -2.0727460831403732 12.025076597929 -27.33413189649582 -4.3370213359594345 -4.783375449478626 1.2826693151146173 3.2776232063770294 1.5909593179821968 -3.4027787670493126 -10.689777061343193 4.440685361623764 -6.486136615276337 -9.718392938375473 46.33415222167969 37.58768051862717 24.33363050222397 -29.45612668991089 -41.08083128929138 74.67559576034546 2.9347510635852814 -23.675435185432434 -6.363237127661705 8.196421042084694 4.105556756258011 -0.5918823927640915 13.113309144973755 6.662134453654289 -4.109731279313564 3.470441848039627 -1.6545982472598553 -3.862776607275009 8.094527274370193 10.218160897493362 8.751052245497704 -7.630144357681274 3.991214521229267 1.896459236741066 -2.8642139956355095 6.444461792707443 6.158403530716896 5.656052604317665 -3.4342635422945023 4.3089500069618225 12.363942861557007 7.922523245215416 -6.007288545370102 0.3279295563697815 1.7523173242807388 -0.6280788034200668 9.29247222840786 -1.868378184735775 2.5536423549056053 -1.0755690839141607 3.4934712946414948 -4.708095900714397 -75.0043648481369 27.213971614837646 -2.580213323235512 25.91476857662201 -44.133737683296204 -80.89651823043823 7.310568541288376 -4.285384118556976 4.851173311471939 -1.4066804945468903 -6.607271209359169 -10.230446085333824 -5.782729983329773 6.852063685655594 -4.245154000818729 1.7288956046104431 -0.3189562261104584 5.361362658441067 -13.21303904056549 3.607863485813141 4.37570683658123 -9.580735266208649 -2.7385015413165092 -1.3187140971422195 -1.3116397708654404 -5.212794430553913 6.677867621183395 3.3495694398880005 -3.1150052323937416 -5.85112564265728 -7.1000902354717255 -3.3289338648319244 -2.2839951887726784 9.828022867441177 3.358583003282547 1.7334748059511185 -11.392419934272766 -1.8766336888074875 3.8409850001335144 0.22904489189386368 4.877395257353783 -3.956275060772896 -51.49895489215851 -34.310705065727234 -40.13335704803467 -41.73314452171326 69.85191106796265 41.81892156600952 -15.970116555690765 -20.603973269462585 -4.151784293353558 0.3589843399822712 -2.7574945986270905 -1.4330261573195457 59.00750398635864 -35.52065223455429 49.29523587226868 45.22579908370972 77.9340934753418 -59.944265484809875 -4.959088638424873 -8.894712701439857 5.808214321732521
